<svg id="Layer_1" data-name="Layer 1" xmlns="http://www.w3.org/2000/svg" xmlns:xlink="http://www.w3.org/1999/xlink" viewBox="0 0 926.83 926.83"><defs><style>.cls-1,.cls-2,.cls-3{fill:none;}.cls-2{stroke:#14211d;stroke-width:2px;}.cls-2,.cls-3{stroke-miterlimit:10;}.cls-3{stroke:#aa907c;stroke-width:7px;}.cls-4{clip-path:url(#clip-path);}</style><clipPath id="clip-path" transform="translate(-76.58 -76.58)"><rect id="SVGID" class="cls-1" x="872.56" y="686.65" width="871" height="679"/></clipPath></defs><rect class="cls-2" x="1" y="1" width="924.83" height="924.83" rx="2.39"/><path class="cls-3" d="M586.5,604.1v27.4l2.6,145.1s220.34-41.76,272.48-180.81c0,0,46.35-162.22-110.08-254.92H317S206.89,422,235.86,619c0,0,62.52,141.25,294.27,158.63l.2-142.53-.83-29.57c-24.47,2.12-182-56-240.63-123.16-14.65-16.78-2.89-43,19.39-43H775.41c24.46,0,34.28,31.61,14.07,45.39C749.87,511.75,683.28,579,586.5,604.1Z" transform="translate(-76.58 -76.58)"/><path class="cls-3" d="M320.09,510.62s-58.22-30.39-53.85-105.87" transform="translate(-76.58 -76.58)"/><path class="cls-3" d="M777,493.41s68.06-42.15,47.35-88.66" transform="translate(-76.58 -76.58)"/></svg>