<svg id="Layer_1" data-name="Layer 1" xmlns="http://www.w3.org/2000/svg" xmlns:xlink="http://www.w3.org/1999/xlink" viewBox="0 0 926.83 926.83"><defs><style>.cls-1,.cls-3,.cls-4{fill:none;}.cls-2{clip-path:url(#clip-path);}.cls-3{stroke:#14211d;stroke-width:2px;}.cls-3,.cls-4{stroke-miterlimit:10;}.cls-4{stroke:#aa907c;stroke-width:7px;}.cls-5{fill:#aa907c;}</style><clipPath id="clip-path" transform="translate(-75.97 -75.97)"><rect id="SVGID" class="cls-1" x="815.15" y="366.24" width="738.85" height="575.98"/></clipPath></defs><rect class="cls-3" x="1" y="1" width="924.83" height="924.83" rx="2.39"/><path class="cls-4" d="M835.35,407.7a298.42,298.42,0,0,1-27.46,74c-145.13-56-507.11,0-507.11,0-16.26-26.89-24.66-57.15-19.06-89.09.44-1.75.88-3.58,1.35-5.47,1-4.11,2-8.23,2.75-12.4,1.65-9.51,14.64-36.67,108.53-42.65,114.31-7.28,295.31,0,295.31,0S848.23,342.7,835.35,407.7Z" transform="translate(-75.97 -75.97)"/><path class="cls-4" d="M807.89,481.66c-29.32,55-82.71,113.85-169.72,133.1A182.55,182.55,0,0,1,598.69,619H472.24S350.09,564.59,300.78,481.66C300.78,481.66,662.76,425.63,807.89,481.66Z" transform="translate(-75.97 -75.97)"/><path class="cls-4" d="M791.64,708c-56.59,35.87-148.49,69.48-295.3,72.85-8.41,0-16.26,0-24.1-1.12L453.5,658.5,472.24,619H582.76c78.29,0,152.6-35.93,200-98.23,30.35-39.87,46.77-85.42,52.73-115.22l25.62,138.36C873.45,607.74,846.55,672.74,791.64,708Z" transform="translate(-75.97 -75.97)"/><path class="cls-4" d="M281.5,392.5,240.82,530.41C225.13,587,239.7,649.21,283.4,689c53.24,47.07,123.84,73.41,162,85.17a152.33,152.33,0,0,0,26.89,5.61" transform="translate(-75.97 -75.97)"/><line class="cls-4" x1="396.28" y1="705.48" x2="396.28" y2="703.8"/><circle class="cls-5" cx="473.27" cy="602.65" r="15.68"/><circle class="cls-5" cx="473.27" cy="665.35" r="15.68"/><line class="cls-4" x1="732.48" y1="405.7" x2="731.92" y2="405.7"/></svg>