<svg id="Layer_1" data-name="Layer 1" xmlns="http://www.w3.org/2000/svg" viewBox="0 0 926.83 926.83"><defs><style>.cls-1,.cls-2{fill:none;stroke-miterlimit:10;}.cls-1{stroke:#aa907c;stroke-width:7px;}.cls-2{stroke:#14211d;stroke-width:2px;}</style></defs><path class="cls-1" d="M601.5,610.5s135-65,148.16-261.94c0,0-223.14-52.51-406.9,0,0,0,21.48,233.69,152.74,259.94Z" transform="translate(-76.58 -76.58)"/><path class="cls-1" d="M495.63,605.92s-26.95,192-113.5,175.79C311.5,768.5,291.46,744.3,275.19,656.64A444.22,444.22,0,0,1,280,473.54c13-55,33.93-117.77,62.79-125" transform="translate(-76.58 -76.58)"/><path class="cls-1" d="M602.5,608.5S618.4,808,710.28,781.71,828.42,663.58,828.42,558.57s-78.76-210-78.76-210" transform="translate(-76.58 -76.58)"/><line class="cls-1" x1="541.56" y1="614.74" x2="397.92" y2="614.74"/><rect class="cls-1" x="436.81" y="560.74" width="65.63" height="26.25"/><path class="cls-1" d="M374.5,472.5s223.37-34.16,345.2-.29" transform="translate(-76.58 -76.58)"/><rect class="cls-2" x="1" y="1" width="924.83" height="924.83" rx="2.39"/></svg>