<svg id="Layer_1" data-name="Layer 1" xmlns="http://www.w3.org/2000/svg" viewBox="0 0 926.83 926.83"><defs><style>.cls-1,.cls-2{fill:none;stroke-miterlimit:10;}.cls-1{stroke:#14211d;stroke-width:2px;}.cls-2{stroke:#aa907c;stroke-width:7px;}</style></defs><rect class="cls-1" x="1" y="1" width="924.83" height="924.83" rx="2.39"/><path class="cls-2" d="M569.07,613.82s97.48,117.13,110.51,170c0,0,132.89-113.33,148.77-250.59a78.32,78.32,0,0,0-1.21-25.32c-6.6-31.07-27.24-114.28-64.45-146.67a.51.51,0,0,0-.85.41C762.71,376.75,766.35,527.93,569.07,613.82Z" transform="translate(-76.58 -76.58)"/><path class="cls-2" d="M726.14,486.37s-269.81-33.09-352.08,7.9c0,0-39.68-87-32.19-144.36a7.21,7.21,0,0,1,6.12-6.23c39.28-5.65,289.46-38.68,411.94,16a2.87,2.87,0,0,1,1.68,2.84C760.62,375.28,754,446,726.14,486.37Z" transform="translate(-76.58 -76.58)"/><path class="cls-2" d="M341.39,351a.34.34,0,0,0-.61-.22c-8.14,10.27-97,124.83-76.15,202.9,21.88,81.8,113.2,232.74,113.2,232.74s107-159.4,143.47-173.81C521.3,612.64,345.74,579.7,341.39,351Z" transform="translate(-76.58 -76.58)"/><path class="cls-2" d="M569.07,613.82l-53.9-1L448.1,690.46a2,2,0,0,0,.65,3.14c13.32,6.4,82.6,35.5,183.45,3.41Z" transform="translate(-76.58 -76.58)"/><circle class="cls-2" cx="464.97" cy="586.75" r="28.67"/></svg>