<svg id="Layer_1" data-name="Layer 1" xmlns="http://www.w3.org/2000/svg" viewBox="0 0 926.83 926.83"><defs><style>.cls-1,.cls-2{fill:none;stroke-miterlimit:10;}.cls-1{stroke:#14211d;stroke-width:2px;}.cls-2{stroke:#aa907c;stroke-width:7px;}</style></defs><rect class="cls-1" x="1" y="1" width="924.83" height="924.83" rx="2.39"/><path class="cls-2" d="M588.19,589.61A36.9,36.9,0,0,0,563.5,624.5h0l2.6,145.1s243.34-34.76,295.48-173.81c0,0,46.35-162.22-110.08-254.92H317S206.89,422,235.86,619c0,0,69.52,133.25,301.27,150.63l.2-142.53h0a41.84,41.84,0,0,0-30.76-39.24c-55.08-15.16-171.13-52.15-217.7-105.48-14.65-16.78-2.89-43,19.39-43H775.41c24.46,0,34.28,31.61,14.07,45.39C753.33,509.39,671.72,560.55,588.19,589.61Z" transform="translate(-76.58 -76.58)"/><path class="cls-2" d="M320.09,510.62s-58.22-30.39-53.85-105.87" transform="translate(-76.58 -76.58)"/><path class="cls-2" d="M777,493.41s68.06-42.15,47.35-88.66" transform="translate(-76.58 -76.58)"/></svg>