<svg id="Layer_1" data-name="Layer 1" xmlns="http://www.w3.org/2000/svg" viewBox="0 0 926.83 926.83"><defs><style>.cls-1,.cls-2{fill:none;stroke-miterlimit:10;}.cls-1{stroke:#14211d;stroke-width:2px;}.cls-2{stroke:#aa907c;stroke-width:7px;}</style></defs><rect class="cls-1" x="1" y="1" width="924.83" height="924.83" rx="2.39"/><path class="cls-2" d="M563.5,597.5v27l2.6,145.1s243.34-34.76,295.48-173.81c0,0,46.35-162.22-110.08-254.92H317S206.89,422,235.86,619c0,0,69.52,133.25,301.27,150.63l.2-142.53-.83-31.57S350.89,553.44,288.85,482.32c-14.64-16.77-2.93-43,19.33-43H775.41c24.46,0,34.28,31.61,14.07,45.39C749.78,511.82,655.2,570.88,563.5,597.5Z" transform="translate(-76.58 -76.58)"/><path class="cls-2" d="M320.09,510.62s-58.22-30.39-53.85-105.87" transform="translate(-76.58 -76.58)"/><path class="cls-2" d="M777,493.41s68.06-42.15,47.35-88.66" transform="translate(-76.58 -76.58)"/></svg>