<svg id="Layer_1" data-name="Layer 1" xmlns="http://www.w3.org/2000/svg" xmlns:xlink="http://www.w3.org/1999/xlink" viewBox="0 0 926.83 926.83"><defs><style>.cls-1,.cls-2,.cls-3{fill:none;}.cls-2{stroke:#14211d;stroke-width:2px;}.cls-2,.cls-3{stroke-miterlimit:10;}.cls-3{stroke:#aa907c;stroke-width:7px;}.cls-4{clip-path:url(#clip-path);}</style><clipPath id="clip-path" transform="translate(-76.58 -76.58)"><rect id="SVGID" class="cls-1" x="872.56" y="686.65" width="871" height="679"/></clipPath></defs><rect class="cls-2" x="1" y="1" width="924.83" height="924.83" rx="2.39"/><path class="cls-3" d="M576.91,619.44l-8.41,3.06,2,162s238.94-49.66,291.08-188.71c0,0,46.35-162.22-110.08-254.92H317S206.89,422,235.86,619c0,0,81.89,149.15,313.64,166.53l-3-165-19.75-5.8c-8.26-2.43-15.25-5.2-25.42-8.59-4-1.34-6.83-2.61-11.75-4.51-37.06-14.35-148-58.73-200.83-119.39-14.58-16.73-2.69-42.85,19.51-42.85H775.41c24.46,0,34.31,31.66,14.07,45.39-38,25.75-69,64.75-153.07,112.1-2,1.1-3.94,2.16-5.9,3.23-15.33,8.38-30,13.42-48.29,18A53.61,53.61,0,0,0,576.91,619.44Z" transform="translate(-76.58 -76.58)"/><path class="cls-3" d="M320.09,510.62s-58.22-30.39-53.85-105.87" transform="translate(-76.58 -76.58)"/><path class="cls-3" d="M777,493.41s68.06-42.15,47.35-88.66" transform="translate(-76.58 -76.58)"/></svg>