<svg id="Layer_1" data-name="Layer 1" xmlns="http://www.w3.org/2000/svg" xmlns:xlink="http://www.w3.org/1999/xlink" viewBox="0 0 926.83 926.83"><defs><style>.cls-1,.cls-2,.cls-3{fill:none;}.cls-2{stroke:#14211d;stroke-width:2px;}.cls-2,.cls-3{stroke-miterlimit:10;}.cls-3{stroke:#aa907c;stroke-width:7px;}.cls-4{clip-path:url(#clip-path);}</style><clipPath id="clip-path" transform="translate(-76.58 -76.58)"><rect id="SVGID" class="cls-1" x="872.56" y="686.65" width="871" height="679"/></clipPath></defs><rect class="cls-2" x="1" y="1" width="924.83" height="924.83" rx="2.39"/><path class="cls-3" d="M615,612.12,588.5,642.5l-5,138s225.94-45.66,278.08-184.71c0,0,46.35-162.22-110.08-254.92H317S206.89,422,235.86,619c0,0,65.89,144.15,297.64,161.53l6-141L510.76,610a36.3,36.3,0,0,0-19.18-10.4c-39-7.42-149.92-56.7-202.79-117.35-14.6-16.75-2.75-42.89,19.47-42.89H775.41c24.46,0,34.31,31.66,14.07,45.39-38,25.75-69,64.75-153.07,112.1C628.57,601.26,620.31,604.86,615,612.12Z" transform="translate(-76.58 -76.58)"/><path class="cls-3" d="M320.09,510.62s-58.22-30.39-53.85-105.87" transform="translate(-76.58 -76.58)"/><path class="cls-3" d="M777,493.41s68.06-42.15,47.35-88.66" transform="translate(-76.58 -76.58)"/></svg>