<svg xmlns="http://www.w3.org/2000/svg" viewBox="0 0 926.83 926.83"><defs><style>.cls-1,.cls-2,.cls-3,.cls-4{fill:none;stroke-miterlimit:10;}.cls-1{stroke:#14211d;}.cls-1,.cls-2{stroke-width:2px;}.cls-2,.cls-3{stroke:#aa907c;}.cls-3{stroke-width:7px;}.cls-4{stroke:#000;stroke-width:3px;}.cls-5{font-size:87.16px;font-family:Cairo-Regular, Cairo;}</style></defs><g id="Layer_1" data-name="Layer 1"><rect class="cls-1" x="1" y="1" width="924.83" height="924.83" rx="2.39"/><path class="cls-2" d="M547.46,707" transform="translate(-76.58 -76.58)"/><rect class="cls-3" x="269.92" y="232.25" width="387" height="85.67"/><path class="cls-3" d="M269.92,317.92h387a0,0,0,0,1,0,0V644.25a50.33,50.33,0,0,1-50.33,50.33H320.25a50.33,50.33,0,0,1-50.33-50.33V317.92A0,0,0,0,1,269.92,317.92Z"/><path class="cls-4" d="M780,886.77l9.89,43.82S874,892.43,939,880.41" transform="translate(-76.58 -76.58)"/></g><g id="Layer_2" data-name="Layer 2"><text class="cls-5" transform="translate(60.72 120.68)">R</text><text class="cls-5" transform="translate(820.67 120.68)">L</text></g></svg>