<svg id="Layer_1" data-name="Layer 1" xmlns="http://www.w3.org/2000/svg" xmlns:xlink="http://www.w3.org/1999/xlink" viewBox="0 0 926.83 926.83"><defs><style>.cls-1,.cls-2,.cls-4,.cls-5,.cls-6{fill:none;}.cls-2{stroke:#14211d;}.cls-2,.cls-4,.cls-5,.cls-6{stroke-miterlimit:10;}.cls-2,.cls-4{stroke-width:2px;}.cls-3{clip-path:url(#clip-path);}.cls-4,.cls-5{stroke:#aa907c;}.cls-5,.cls-6{stroke-width:7px;}.cls-6{stroke:#0071bc;}</style><clipPath id="clip-path" transform="translate(-76.58 -76.58)"><rect id="SVGID" class="cls-1" x="1300.37" y="-157.28" width="1675.63" height="1306.26"/></clipPath></defs><rect class="cls-2" x="1" y="1" width="924.83" height="924.83" rx="2.39"/><path class="cls-4" d="M547.46,734.22" transform="translate(-76.58 -76.58)"/><path class="cls-5" d="M256,490.91,467.13,350.13s158.39,158.38,193.58,176c0,0-246.37,88-404.76,140.79" transform="translate(-76.58 -76.58)"/><path class="cls-5" d="M364.6,418.48S440.14,566.3,513.32,578.25" transform="translate(-76.58 -76.58)"/><polyline class="cls-5" points="589.47 449.02 589.47 273.87 495.49 273.87 496.02 376.39"/><polyline class="cls-5" points="495.49 480.98 495.49 722.42 746.46 722.42"/><polygon class="cls-6" points="495.5 269.06 495.5 203.92 542.92 162.92 590 203.92 590 273.42 495.53 273.42 495.5 269.06"/></svg>