<svg id="Layer_1" data-name="Layer 1" xmlns="http://www.w3.org/2000/svg" xmlns:xlink="http://www.w3.org/1999/xlink" viewBox="0 0 926.83 926.83"><defs><style>.cls-1,.cls-2,.cls-4,.cls-5{fill:none;}.cls-2{stroke:#14211d;}.cls-2,.cls-4,.cls-5{stroke-miterlimit:10;}.cls-2,.cls-4{stroke-width:2px;}.cls-3{clip-path:url(#clip-path);}.cls-4,.cls-5{stroke:#aa907c;}.cls-5{stroke-width:7px;}.cls-6{fill:#aa907c;}</style><clipPath id="clip-path" transform="translate(-76.58 -76.58)"><rect id="SVGID" class="cls-1" x="1388.37" y="-270.28" width="1675.63" height="1306.26"/></clipPath></defs><rect class="cls-2" x="1" y="1" width="924.83" height="924.83" rx="2.39"/><path class="cls-4" d="M547.46,707" transform="translate(-76.58 -76.58)"/><line class="cls-5" x1="244.69" y1="319.63" x2="244.69" y2="620.37"/><ellipse class="cls-5" cx="463.87" cy="319.63" rx="218.27" ry="53.22"/><path class="cls-5" d="M321.27,692.42C321.27,717,412,736.3,532.5,736.5c24.86,0,25.79,1.46,45.33.24a13.55,13.55,0,0,0,6.69-2.24l47-31" transform="translate(-76.58 -76.58)"/><path class="cls-5" d="M757.82,692.42c-1,18.12-49.27,32.74-120.36,39.6l-19.1-17.56" transform="translate(-76.58 -76.58)"/><line class="cls-5" x1="681.24" y1="323.41" x2="681.24" y2="621.12"/><line class="cls-5" x1="554.71" y1="368.42" x2="553.92" y2="630.42"/><circle class="cls-6" cx="513.86" cy="529.87" r="14.5"/><circle class="cls-6" cx="591.86" cy="523.87" r="14.5"/></svg>