<svg id="Layer_1" data-name="Layer 1" xmlns="http://www.w3.org/2000/svg" viewBox="0 0 926.83 926.83"><defs><style>.cls-1,.cls-2,.cls-3{fill:none;stroke-miterlimit:10;}.cls-1{stroke:#14211d;}.cls-1,.cls-2{stroke-width:2px;}.cls-2,.cls-3{stroke:#aa907c;}.cls-3{stroke-width:7px;}.cls-4{fill:#aa907c;}</style></defs><rect class="cls-1" x="1" y="1" width="924.83" height="924.83" rx="2.39"/><path class="cls-2" d="M547.46,707" transform="translate(-76.58 -76.58)"/><line class="cls-3" x1="244.69" y1="319.63" x2="244.69" y2="620.37"/><ellipse class="cls-3" cx="463.87" cy="319.63" rx="218.27" ry="53.22"/><path class="cls-3" d="M321.27,692.42C321.27,717,412,736.3,532.5,736.5c24.86,0,54.79-.54,74.33-1.76h.07a10.94,10.94,0,0,0,8.51-5.33l9.09-14.91" transform="translate(-76.58 -76.58)"/><path class="cls-3" d="M757.82,692.42c-.88,16.47-40.86,30-101.51,37.53a40.48,40.48,0,0,1-32.37-10.37l-1.44-3.08" transform="translate(-76.58 -76.58)"/><line class="cls-3" x1="681.24" y1="323.41" x2="681.24" y2="621.12"/><line class="cls-3" x1="547.92" y1="369.42" x2="547.12" y2="641.42"/><circle class="cls-4" cx="513.86" cy="529.87" r="14.5"/><circle class="cls-4" cx="591.86" cy="523.87" r="14.5"/></svg>