<svg id="Layer_1" data-name="Layer 1" xmlns="http://www.w3.org/2000/svg" viewBox="0 0 926.83 926.83"><defs><style>.cls-1,.cls-2,.cls-3{fill:none;stroke-miterlimit:10;}.cls-1{stroke:#14211d;}.cls-1,.cls-2{stroke-width:2px;}.cls-2,.cls-3{stroke:#aa907c;}.cls-3{stroke-width:7px;}</style></defs><rect class="cls-1" x="1" y="1" width="924.83" height="924.83" rx="2.39"/><path class="cls-2" d="M547.46,707" transform="translate(-76.58 -76.58)"/><line class="cls-3" x1="244.69" y1="319.63" x2="244.69" y2="620.37"/><path class="cls-3" d="M610.19,446.66c-21.9,1.8-45.35,2.77-69.74,2.77-120.55,0-218.27-23.82-218.27-53.21S419.9,343,540.45,343s218.28,23.83,218.28,53.22c0,18.92-40.52,35.54-101.56,45" transform="translate(-76.58 -76.58)"/><path class="cls-3" d="M321.27,692.42C321.27,717,412,736.3,532.5,736.5c24.86,0,54.79-.54,74.33-1.76L668.5,751.5v-278l-58.31-26.84" transform="translate(-76.58 -76.58)"/><path class="cls-3" d="M659.19,440.66,717.5,467.5v278l-33-17s65.65-21.58,73.32-30.79V400" transform="translate(-76.58 -76.58)"/><polygon class="cls-3" points="569.92 525.92 545.92 517.92 545.92 450.92 569.92 446.92 569.92 525.92"/></svg>