<svg id="Layer_1" data-name="Layer 1" xmlns="http://www.w3.org/2000/svg" viewBox="0 0 783.31 759.14"><defs><style>.cls-1,.cls-2,.cls-3,.cls-4{fill:none;stroke-miterlimit:10;}.cls-1{stroke:#231f20;}.cls-1,.cls-2{stroke-width:2px;}.cls-2,.cls-3,.cls-4{stroke:#ed2b31;stroke-dasharray:1;}.cls-4{stroke-width:0.75px;}</style></defs><path class="cls-1" d="M619.64,175s-11.11,54-69.86,90.51H483.62s-64-24.35-65.1-94.21C418.52,171.27,550.31,145.86,619.64,175Z" transform="translate(-168 -160)"/><polyline class="cls-1" points="250.52 11.27 225.64 75.84 13.94 149.41 39.87 436.8 57.87 465.91 53.1 756.48"/><path class="cls-1" d="M393.64,235.84s37.58,88.39,89.45,94.21,66.69,0,66.69,0,60.86-11.65,95.79-96.33L619.64,175" transform="translate(-168 -160)"/><polygon class="cls-1" points="315.62 105.48 316.68 698.78 350.55 727.37 380.72 699.31 381.78 105.48 315.62 105.48"/><polyline class="cls-1" points="477.57 73.72 685.58 150.47 669.7 433.62 638.47 461.14 645.35 759.12"/><path class="cls-1" d="M831.78,302.42S794.83,364.45,788,456l-10.06,91.57-8.47,371.54" transform="translate(-168 -160)"/><polygon class="cls-1" points="567.55 536.3 548.5 559.06 450.58 559.06 424.65 538.42 424.65 380.7 567.55 380.7 567.55 536.3"/><line class="cls-2" x1="424.65" y1="426.74" x2="567.55" y2="426.74"/><polyline class="cls-3" points="421.3 354.41 571.61 354.41 581.58 326.89 783.31 326.89"/><line class="cls-3" x1="581.58" y1="383.87" x2="581.58" y2="555.53"/><line class="cls-3" x1="581.58" y1="463.09" x2="783.31" y2="463.09"/><polyline class="cls-3" points="50.1 192.81 246.28 192.81 246.28 146.94 148.9 49.55 0 49.55"/><line class="cls-4" x1="424.65" y1="475.08" x2="316.28" y2="475.08"/><polyline class="cls-3" points="356.37 475.08 514.45 587.99 772.73 587.99"/><line class="cls-4" x1="408.59" y1="422.16" x2="408.59" y2="380.7"/><line class="cls-3" x1="408.59" y1="401.43" x2="208.18" y2="401.43"/><line class="cls-3" x1="486.92" y1="380.7" x2="486.92" y2="135.65"/><polyline class="cls-3" points="486.93 274.67 657 127.18 753.67 127.18"/><polyline class="cls-3" points="344.38 167.4 451.64 167.4 451.64 121.18"/><polyline class="cls-3" points="451.64 151.17 523.62 59.43 654.17 59.43"/><line class="cls-1" x1="380.83" y1="637.39" x2="316.57" y2="637.39"/><path class="cls-1" d="M202,302.42S245.63,434,250.57,500.65l9.17,110.12v305.7" transform="translate(-168 -160)"/><line class="cls-1" x1="91.74" y1="453.91" x2="39.87" y2="436.8"/><line class="cls-1" x1="91.74" y1="642.33" x2="55.1" y2="634.57"/><polyline class="cls-1" points="65.81 756.48 65.81 735.48 53.58 727.37"/><line class="cls-1" x1="669.7" y1="433.62" x2="608.38" y2="453.91"/><line class="cls-1" x1="642.48" y1="634.57" x2="603.91" y2="650.09"/><polyline class="cls-1" points="632.6 759.12 632.6 727.37 644.45 719.98"/></svg>