<svg id="Layer_1" data-name="Layer 1" xmlns="http://www.w3.org/2000/svg" viewBox="0 0 853.54 661.79"><defs><style>.cls-1,.cls-2{fill:none;stroke-miterlimit:10;}.cls-1{stroke:#000;stroke-width:2px;}.cls-2{stroke:#ed2b31;stroke-dasharray:1;}</style></defs><path class="cls-1" d="M303.27,294.48s28.91,38.24,74.61,36.38,78.35-36.38,78.35-36.38l102.6,36.44S542,379.36,542,387.75H217.46L198.8,329Z" transform="translate(-99 -231.49)"/><polyline class="cls-2" points="279.82 156.26 279.82 41.54 176.28 41.54"/><polyline class="cls-2" points="357.23 156.26 357.23 0.5 250.9 0.5"/><polyline class="cls-2" points="105.4 160.93 88.61 104.03 0 104.03"/><polyline class="cls-2" points="19.59 209.9 94.67 209.9 124.05 172.12 440.71 172.12"/><polygon class="cls-1" points="687.14 247.66 822.7 118.2 716.08 22.25 600.33 173.03 687.14 247.66"/><polyline class="cls-1" points="644.14 210.7 657.82 210.7 692.09 172.46"/><polyline class="cls-1" points="674.39 154.18 753.21 84.5 775.48 89.07 768.63 113.06 699.52 175.32"/><line class="cls-1" x1="735.01" y1="100.59" x2="757.44" y2="123.02"/><path class="cls-1" d="M183.89,770.59s350.64-2.25,389.41,0l12.62-37.85s7.66-11.72-14.43-8.12-141.52,9.92-193.8,8.57-168.11-1.83-197.86-9.26c0,0-7.66-4.27-3.16,13.76Z" transform="translate(-99 -231.49)"/><path class="cls-1" d="M132.5,681.85l6.77-29.3s.45-10.37,16.22-9.92l149.64-4H521.91s60.4,5.41,74.37,3.6c0,0,13.52-4.5,19.83,12.62s9,24.79,9,24.79-22.54,10.82-57.69,10.82L456.56,683.2l-83.83-2.26L253.29,685l-92.39,3.61Z" transform="translate(-99 -231.49)"/><path class="cls-1" d="M823.51,732.53l-49.34,69.18-16.79-77.82L764.5,672s4.33-10.68,20.09-11.44,85.72-5.6,106.82,0c0,0,28.74,1,30.78,16s4.07,49.09,4.07,49.09l-60,85.2L831.65,733Z" transform="translate(-99 -231.49)"/><path class="cls-1" d="M834.7,736.6s72-27.72,84.18-52.9c0,0,9.92-19.07-23.4-21.62a742.71,742.71,0,0,0-109.11,0s-28.23,2-17,19.59,52.12,53.75,52.12,53.75" transform="translate(-99 -231.49)"/><path class="cls-1" d="M831.65,733l73.75-43.49s30.33-17-5.18-27H791s-33.31,4.58-15.51,22.13,49.34,46.54,49.34,46.54" transform="translate(-99 -231.49)"/><line class="cls-1" x1="688.73" y1="465.11" x2="792.38" y2="466.33"/><path class="cls-1" d="M845.44,764.07a87.64,87.64,0,0,1-42.55-2.63" transform="translate(-99 -231.49)"/><line class="cls-2" x1="766.98" y1="565.39" x2="737.52" y2="498.68"/><polyline class="cls-2" points="853.54 581.9 767.24 581.9 675.17 572.74 643.97 601.74 591.75 601.74"/><polyline class="cls-2" points="146.14 661.29 258.44 661.29 258.44 500.84 368.49 500.84"/><polyline class="cls-2" points="830.69 140.28 705.42 260.23 839.07 260.23"/><line class="cls-2" x1="638.72" y1="123.02" x2="730.95" y2="205.82"/><polyline class="cls-2" points="766.7 114.79 743.64 92.95 760.25 16.15 853.54 16.15"/></svg>