<svg id="Layer_1" data-name="Layer 1" xmlns="http://www.w3.org/2000/svg" viewBox="0 0 701.89 817.34"><defs><style>.cls-1,.cls-10,.cls-2,.cls-3,.cls-4,.cls-5,.cls-6,.cls-7,.cls-8,.cls-9{fill:none;}.cls-1,.cls-10,.cls-3,.cls-5,.cls-6,.cls-7{stroke:#ed2b31;}.cls-1,.cls-10,.cls-2,.cls-3,.cls-4,.cls-5,.cls-6,.cls-7,.cls-9{stroke-miterlimit:10;}.cls-1,.cls-3{stroke-dasharray:1;}.cls-2,.cls-9{stroke:#000;}.cls-2{stroke-width:2px;}.cls-3,.cls-5,.cls-6,.cls-7{stroke-width:0.75px;}.cls-4{stroke:#929497;}.cls-6{stroke-dasharray:0.98 0.98;}.cls-7{stroke-dasharray:0.99 0.99;}.cls-9{stroke-width:0.25px;}</style></defs><polyline class="cls-1" points="701.42 134.43 676.76 200.62 668.11 249.09"/><path class="cls-2" d="M479.81,221.51c-2.86,6.6-10.19,19.77-25.39,27.5h-23s-23.54-9.11-22.75-29.68a5.13,5.13,0,0,1,4.12-4.78c9.8-1.93,37.6-6.15,64.62,1.7A3.86,3.86,0,0,1,479.81,221.51Z" transform="translate(-222.16 -141.66)"/><path class="cls-2" d="M408.62,217.13s-4.68,9.74-9.81,20.54l-70.67,23.56-7.79,2.83-44.28,35.07L276.6,385l53.31-20.72,7.09,9.92-19.66,566.2,25,12.76L391,950.7a101.42,101.42,0,0,0,25.51,5.66c14.87,1.42,45.69,2.84,60.92,0" transform="translate(-222.16 -141.66)"/><line class="cls-2" x1="194.35" y1="814.7" x2="194.35" y2="473.95"/><polyline class="cls-2" points="120.18 811.51 120.18 784.24 122.09 752.01 124.22 675.14 126.58 574.67 128.94 445.9 127.05 227.54 107.75 222.64"/><line class="cls-2" x1="127.63" y1="294.6" x2="112.79" y2="291.28"/><path class="cls-3" d="M224.53,249h80.76l22.85,12.22c9.93,21.52,15.18,46.28,18,66.65a325.63,325.63,0,0,1,3.12,41.32l-33.54,28.34h-85" transform="translate(-222.16 -141.66)"/><line class="cls-2" x1="112.79" y1="136.84" x2="186.45" y2="112.78"/><path class="cls-2" d="M398.81,237.67s9,29.05,32.35,33.54h24.56s26-6.38,34.47-33.54l-9-19.36" transform="translate(-222.16 -141.66)"/><path class="cls-2" d="M490.19,237.67l68,23.85s-.47,2.13,10.15,2.84,92.81,6.85,92.81,6.85l41.79,4,173.8,31.17-10.86,65.88-169.31-13s-83.12.23-136.73,3.77l-10.62,9.21,1.65,84.07" transform="translate(-222.16 -141.66)"/><polyline class="cls-2" points="337.69 221.4 316.91 229.43 314.55 314.68"/><line class="cls-4" x1="328.27" y1="292.01" x2="315.05" y2="296.48"/><path class="cls-2" d="M559.85,262.93c-4.72,2.58-9.42,15.12-9.42,15.12-11.3,37.79-11.36,93-11.36,93" transform="translate(-222.16 -141.66)"/><line class="cls-2" x1="259.55" y1="112.08" x2="328.27" y2="136.39"/><polyline class="cls-2" points="209.23 107.35 209.58 314.68 221.98 323.94 232.61 314.68 232.25 107.35"/><path class="cls-4" d="M528.09,365.9s-1.59-54,4.43-79.17c0,0,1-10.09,5.67-8.23l.88,38.51" transform="translate(-222.16 -141.66)"/><polygon class="cls-2" points="249.26 203.16 302.03 203.16 302.03 258.06 295.3 264.79 258.29 264.79 249.26 258.06 249.26 203.16"/><line class="cls-2" x1="249.26" y1="218.57" x2="302.03" y2="218.57"/><path class="cls-4" d="M351.11,317l2.36-38.51s1.41-7.53,2.83,3.8,5,73.33,4.25,97.41" transform="translate(-222.16 -141.66)"/><path class="cls-4" d="M361.26,780S364.45,620.22,374.37,600,393.49,917.4,393.49,917.4" transform="translate(-222.16 -141.66)"/><polyline class="cls-2" points="112.79 323.94 118.35 326.96 115.57 427.55 108.06 427.55"/><line class="cls-5" x1="149.62" y1="105.02" x2="149.28" y2="104.65"/><line class="cls-6" x1="148.61" y1="103.95" x2="123.48" y2="77.37"/><polyline class="cls-5" points="123.15 77.01 122.8 76.65 122.3 76.65"/><line class="cls-7" x1="121.31" y1="76.65" x2="24.62" y2="76.65"/><line class="cls-5" x1="24.12" y1="76.65" x2="23.62" y2="76.65"/><polyline class="cls-3" points="65.66 52.33 164.36 52.33 222.34 132.14 221.98 323.94 255.28 112.08 205.45 29.18 138.48 29.18"/><polyline class="cls-3" points="271.1 119.57 296.6 0.38 321.66 0.38"/><polyline class="cls-3" points="252.7 73.89 232.61 3.68 172.87 3.68"/><polyline class="cls-3" points="116.8 236.21 78.88 205.34 0.01 203.16"/><polyline class="cls-3" points="123.27 181.61 92.11 161.89 9.93 163.78"/><path class="cls-1" d="M548.28,367.53" transform="translate(-222.16 -141.66)"/><path class="cls-8" d="M548.28,367.53" transform="translate(-222.16 -141.66)"/><path class="cls-9" d="M543.82,198.24" transform="translate(-222.16 -141.66)"/><polyline class="cls-3" points="321.66 56.58 336.39 124.24 326.12 224.94"/><line class="cls-3" x1="297.25" y1="56.58" x2="351.98" y2="56.58"/><polyline class="cls-3" points="331.62 102.31 483.56 114.78 654.59 147.55 582.92 34.2"/><polyline class="cls-3" points="358.7 220.23 364.73 121.26 393.42 35.8"/><line class="cls-3" x1="417.51" y1="35.8" x2="362.78" y2="35.8"/><polyline class="cls-3" points="477.72 217.88 482.68 131.67 493.1 88.93"/><line class="cls-10" x1="605.91" y1="227.71" x2="618.25" y2="158.21"/><polyline class="cls-1" points="640.89 238.88 602.88 236.99 577.13 247.61 548.56 248.79"/><polyline class="cls-3" points="151.49 276.3 192.94 276.3 209.55 294.24"/><polyline class="cls-3" points="61.88 309.6 86.32 309.6 118.19 332.62"/><polyline class="cls-3" points="19.02 360.96 87.38 363.08 113.2 386.11"/><polyline class="cls-3" points="61.88 407.36 83.49 407.36 113.2 427.55"/><polyline class="cls-3" points="14.77 675.85 147.6 675.85 194.35 707.02"/><path class="cls-3" d="M226.31,885.52H326.72l59.69,38.61,30.11,6.73s54.19,3.9,60.92,0" transform="translate(-222.16 -141.66)"/><path class="cls-3" d="M385,951l1.4-26.87s-34.29,3.54-44.07,1.77-24.14-10.3-24.14-10.3" transform="translate(-222.16 -141.66)"/><polyline class="cls-3" points="13.35 783.89 74.98 785.3 95.17 798.76"/></svg>