<?xml version="1.0" encoding="utf-8"?>
<!-- Generator: Adobe Illustrator 24.1.0, SVG Export Plug-In . SVG Version: 6.00 Build 0)  -->
<svg version="1.1" id="Isolation_Mode" xmlns="http://www.w3.org/2000/svg" xmlns:xlink="http://www.w3.org/1999/xlink" x="0px"
	 y="0px" viewBox="0 0 186.91 53.48" style="enable-background:new 0 0 186.91 53.48;" xml:space="preserve">
<style type="text/css">
	.st0{fill:#FFFFFF;}
	.st1{fill:#B69A81;}
</style>
<g>
	<path class="st0" d="M26.09,28.66h-3.56v-14.2h3.19c4.46,0,6.19,1.99,6.19,7.1C31.91,27.48,29.68,28.66,26.09,28.66 M31.04,28.73
		c2.13-0.78,5.7-2.78,5.7-7.33c0-4.92-3.97-7.85-10.61-7.85h-7.57v26.34h3.97V29.5h4.25l7,10.38h4.85l-7.87-11.05L31.04,28.73z"/>
	<polygon class="st0" points="54.91,27.03 66.61,27.03 66.61,26.19 54.91,26.19 54.91,14.46 67.84,14.46 67.84,13.55 50.65,13.55 
		50.65,39.88 68.79,39.88 68.79,38.96 54.91,38.96 	"/>
	<polygon class="st0" points="81.05,39.88 85.31,39.88 85.31,27.81 96.72,27.81 96.72,27.02 85.31,27.02 85.31,14.46 98.53,14.46 
		98.53,13.55 81.05,13.55 	"/>
	<polygon class="st0" points="167.14,34.8 151.32,13.55 146.83,13.55 146.83,39.88 148,39.88 147.79,18.48 147.79,16.09 
		165.96,39.88 168.35,39.88 168.35,13.55 167.14,13.55 	"/>
	<path class="st0" d="M107.29,26.75c0,7.6,3.93,12.5,10.66,13.56v-0.66c-3.89-1.24-5.66-5.36-5.66-12.91
		c0-7.45,1.82-11.64,5.66-12.93v-0.66C111.3,14.26,107.29,19.26,107.29,26.75"/>
	<path class="st0" d="M123.83,13.17v0.68c3.82,1.32,5.62,5.51,5.62,12.9c0,7.49-1.76,11.61-5.62,12.88v0.67
		c6.73-1.09,10.66-5.98,10.66-13.55C134.49,19.29,130.48,14.3,123.83,13.17"/>
</g>
</svg>
